<?xml version="1.0" standalone="no"?>
<!DOCTYPE svg PUBLIC "-//W3C//DTD SVG 20010904//EN"
 "http://www.w3.org/TR/2001/REC-SVG-20010904/DTD/svg10.dtd">
<svg version="1.0" xmlns="http://www.w3.org/2000/svg"
 width="500.000000pt" height="500.000000pt" viewBox="0 0 500.000000 500.000000"
 preserveAspectRatio="xMidYMid meet">
<metadata>
Created by potrace 1.14, written by Peter Selinger 2001-2017
</metadata>
<g transform="translate(0.000000,500.000000) scale(0.100000,-0.100000)"
fill="#000000" stroke="none">
<path d="M0 2500 l0 -2500 2500 0 2500 0 0 2500 0 2500 -2500 0 -2500 0 0
-2500z m3420 2059 c124 -111 228 -207 233 -214 4 -8 11 -59 15 -115 l7 -101
145 136 c80 75 155 143 167 152 44 30 102 -9 89 -61 -3 -12 -94 -105 -202
-206 -186 -174 -195 -185 -190 -214 5 -27 9 -157 7 -208 -1 -9 -83 -88 -183
-175 l-181 -158 204 -5 204 -5 13 -28 c12 -24 11 -31 -2 -52 -20 -31 -43 -33
-337 -38 l-237 -4 -108 -94 -109 -94 -252 -75 c-139 -41 -253 -77 -253 -80 0
-4 37 -17 83 -30 70 -19 125 -24 374 -34 241 -9 296 -14 308 -27 9 -9 36 -65
61 -124 62 -150 61 -152 -97 -196 -70 -20 -119 -39 -119 -46 0 -7 106 -492
235 -1078 129 -586 235 -1074 235 -1084 0 -27 -35 -54 -63 -49 -29 6 -1413
792 -1445 821 -12 11 -22 27 -22 36 0 8 34 178 75 378 41 200 75 370 75 377 0
7 -59 52 -131 100 -114 76 -155 97 -302 152 -136 51 -181 64 -226 64 l-57 0
-147 157 c-118 125 -147 162 -147 184 0 40 20 50 213 105 l168 48 55 68 c30
37 62 72 72 76 9 5 151 47 314 92 164 46 297 84 295 86 -1 1 -139 41 -306 87
-167 47 -308 91 -312 99 -14 20 -89 261 -89 283 0 27 29 55 57 55 35 0 54 -30
90 -144 31 -98 35 -105 66 -115 17 -5 180 -51 361 -101 271 -75 331 -89 341
-78 11 11 345 502 419 614 l27 41 -62 248 c-68 270 -69 291 -15 310 48 17 65
-16 121 -238 27 -108 52 -197 55 -197 3 1 37 40 77 88 118 142 129 152 162
152 40 0 69 -40 53 -73 -5 -12 -73 -96 -149 -187 -129 -154 -522 -714 -510
-726 3 -3 61 12 131 33 l126 38 335 290 335 290 -1 60 c-1 132 -26 467 -35
473 -6 4 -104 90 -217 191 -218 194 -230 209 -190 253 36 40 58 26 293 -183z"/>
<path d="M1942 2781 l-233 -66 -59 -72 c-65 -78 -53 -72 -283 -138 l-59 -17
73 -76 c40 -43 80 -85 89 -95 15 -17 25 -16 204 18 174 33 190 35 212 20 28
-18 33 -65 9 -89 -9 -8 -38 -18 -66 -22 -27 -4 -51 -10 -54 -13 -2 -4 34 -21
79 -38 82 -31 383 -218 416 -258 13 -16 7 -57 -64 -402 -43 -212 -75 -387 -72
-390 16 -16 1241 -710 1243 -705 4 9 -434 1992 -440 1999 -3 2 -36 -5 -75 -16
-38 -12 -79 -21 -91 -21 -13 0 -77 23 -144 51 -159 68 -183 94 -132 145 30 30
29 30 172 -32 l102 -44 197 54 c108 30 199 57 201 60 3 3 -3 25 -12 50 l-18
46 -61 0 c-33 0 -156 5 -272 10 -210 9 -211 9 -392 59 -100 28 -194 51 -209
50 -15 -1 -133 -31 -261 -68z m326 -87 c27 -19 29 -64 5 -86 -10 -8 -51 -25
-91 -37 -68 -20 -76 -21 -98 -6 -18 11 -24 25 -24 50 0 39 12 48 100 76 70 22
81 22 108 3z m636 -579 c16 -16 20 -33 35 -155 8 -61 7 -79 -5 -97 -17 -27
-65 -31 -87 -9 -28 29 -48 241 -25 264 17 17 64 15 82 -3z m-106 -402 c16 -13
24 -38 32 -96 19 -146 10 -187 -44 -187 -38 0 -55 30 -66 116 -6 43 -13 91
-16 106 -4 21 1 34 20 53 30 30 46 31 74 8z m247 -357 c14 -10 21 -38 31 -112
17 -130 17 -131 -6 -154 -25 -25 -50 -25 -77 -1 -16 15 -23 42 -33 132 -13
112 -13 112 10 131 26 21 49 23 75 4z"/>
</g>
</svg>
